<?xml version="1.0" encoding="utf-8"?>
<!-- Generator: Adobe Illustrator 26.5.0, SVG Export Plug-In . SVG Version: 6.00 Build 0)  -->
<svg version="1.1" id="Layer_1" xmlns="http://www.w3.org/2000/svg" xmlns:xlink="http://www.w3.org/1999/xlink" x="0px" y="0px"
	 viewBox="0 0 640 360" style="enable-background:new 0 0 640 360;" xml:space="preserve">
<style type="text/css">
	.st0{opacity:0.5;}
	.st1{fill:#FFFFFF;}
	.st2{fill:#E4EFF7;}
	.st3{fill:#B8D1E3;}
	.st4{fill:#D3DEE6;}
</style>
<g class="st0">
	<polygon class="st1" points="206.26,307.12 206.26,346.08 217.04,338.58 	"/>
	<polygon class="st1" points="224.32,335.08 206.26,307.12 238.47,332.89 	"/>
	<polygon class="st2" points="223.5,343.24 224.32,335.08 206.26,307.12 	"/>
	<polygon class="st3" points="217.04,338.58 223.5,343.24 206.26,307.12 	"/>
</g>
<g class="st0">
	<polygon class="st1" points="295.38,43.08 295.38,105.03 312.52,93.1 	"/>
	<polygon class="st1" points="324.1,87.55 295.38,43.08 346.61,84.06 	"/>
	<polygon class="st2" points="322.79,100.52 324.1,87.55 295.38,43.08 	"/>
	<polygon class="st3" points="312.52,93.1 322.79,100.52 295.38,43.08 	"/>
</g>
<g class="st0">
	<polygon class="st1" points="560.54,17.07 566.04,60.97 548.78,43.6 	"/>
	<polygon class="st1" points="533.3,36.18 560.54,17.07 508.04,35.23 	"/>
	<polygon class="st2" points="537.51,48.09 533.3,36.18 560.54,17.07 	"/>
	<polygon class="st3" points="548.78,43.6 537.51,48.09 560.54,17.07 	"/>
</g>
<g class="st0">
	<polygon class="st1" points="26.81,332.06 2.47,344.2 11.34,350.19 	"/>
	<polygon class="st1" points="17.5,353.92 26.81,332.06 26.37,359.91 	"/>
	<polygon class="st2" points="16.5,348.9 17.5,353.92 26.81,332.06 	"/>
	<polygon class="st3" points="11.34,350.19 16.5,348.9 26.81,332.06 	"/>
</g>
<g class="st0">
	<polygon class="st2" points="42.49,48.09 53.77,32.75 -0.16,-2.3 	"/>
	<polygon class="st3" points="40.13,33.93 42.49,48.09 -0.16,-2.3 	"/>
	<polygon class="st1" points="-0.16,-2.3 18.93,33.85 40.13,33.93 	"/>
	<polygon class="st1" points="53.89,32.86 -0.16,-2.3 70.84,34.34 	"/>
</g>
<g class="st0">
	<polygon class="st1" points="70.07,184.26 115.72,206.03 67.31,174.66 	"/>
	<polygon class="st2" points="67.31,194.63 70.07,184.26 115.72,206.03 	"/>
	<polygon class="st3" points="71.41,192.44 67.31,194.63 115.72,206.03 	"/>
	<polygon class="st1" points="115.72,206.03 73.7,206.03 71.41,192.44 	"/>
</g>
<g class="st0">
	<polygon class="st1" points="430.17,326.6 456.69,361.1 442.42,320.19 	"/>
	<polygon class="st2" points="426.09,339.37 430.17,326.6 456.69,361.1 	"/>
	<polygon class="st1" points="456.69,361.1 408.37,337.9 422.86,330.24 	"/>
</g>
<g>
	<polygon class="st1" points="401.14,223.44 412.11,199.88 419.37,225.83 	"/>
	<polygon class="st2" points="388.11,239.33 401.14,223.44 412.11,199.88 	"/>
	<polygon class="st4" points="386.23,223.94 388.11,239.33 412.11,199.88 	"/>
	<polygon class="st1" points="412.11,199.88 367.35,223.02 386.23,223.94 	"/>
</g>
<g class="st0">
	<polygon class="st2" points="608.8,135.13 625.89,146.52 593.64,171.38 	"/>
	<polygon class="st1" points="593.64,171.38 594.85,144.21 608.8,135.13 	"/>
	<polygon class="st3" points="625.89,146.52 619.89,129.46 593.64,171.38 	"/>
	<polygon class="st1" points="619.89,129.46 593.64,171.38 640,115.22 	"/>
</g>
</svg>
